# xmcd
#
# Track frame offsets:
#	150
#	270955
#	278512
#	280483
#	282780
#	285415
#	288317
#	297514
#	307334
#	310386
#	313070
#	315914
#	319001
#	321739
#
# Disc length: 4334 seconds
#
# Revision: 5
# Processed by: cddbd v1.5.1PL0 Copyright (c) Steve Scherf et al.
# Submitted via: dBpowerAMP V4.0
#
DISCID=e010ec0e
DTITLE=Tom Clancy's Rainbow Six - Rogue Spear
DYEAR=1999
DGENRE=Game
TTITLE0=DATA
TTITLE1=Main Menu
TTITLE2=Scenario Win - No Casualties
TTITLE3=Scenario Loss
TTITLE4=Scenario Win - Casualties
TTITLE5=Game Win
TTITLE6=Plan - Kit Selection A
TTITLE7=Plan - Kit Selection B
TTITLE8=Pump-up Track A
TTITLE9=Pump-up Track B
TTITLE10=Pump-up Track C
TTITLE11=Pump-up Track D
TTITLE12=Pump-up Track E
TTITLE13=Pump-up Track F
EXTD=Tom Clancy's Rainbow Six: Rogue Spear soundtrack labels.\nAssume data track is ignored. Track 1 here is actually track 2 on the CD.\ndBPowerAMP ignores data tracks by default.
EXTT0=
EXTT1=
EXTT2=
EXTT3=
EXTT4=
EXTT5=
EXTT6=
EXTT7=
EXTT8=
EXTT9=
EXTT10=
EXTT11=
EXTT12=
EXTT13=
PLAYORDER=
